<svg id="svg" version="1.1" xmlns="http://www.w3.org/2000/svg" style="display: block;" viewBox="0 0 300 300"><path d="M0 0 C99 0 198 0 300 0 C300 99 300 198 300 300 C201 300 102 300 0 300 C0 201 0 102 0 0 Z " transform="translate(0,0)" style="fill: #70B4F7;"/><path d="M0 0 C0.84675828 0.00801415 1.69351656 0.01602831 2.56593418 0.02428532 C11.29305321 0.12766608 20.01216028 0.43220346 28.73217773 0.78491211 C30.40262408 0.85002361 32.07308027 0.91488297 33.74354553 0.97950745 C37.20477824 1.11420886 40.66589869 1.25142015 44.12695312 1.390625 C48.52948037 1.56756065 52.93220752 1.7387858 57.33502865 1.90823269 C60.76947514 2.04091881 64.2038134 2.17625273 67.63812447 2.3123951 C69.26096351 2.37649028 70.88383061 2.43987985 72.50672722 2.50250053 C79.79046535 2.78506547 87.07402241 3.08793844 94.34765625 3.5703125 C95.26934097 3.63021866 96.1910257 3.69012482 97.14064026 3.75184631 C100.81624828 4.40617691 102.35831506 6.18811408 104.45483398 9.16381836 C105.23685181 10.2172644 105.23685181 10.2172644 106.03466797 11.29199219 C107.96002711 15.18540797 107.99818911 18.57065586 108.11499023 22.86303711 C108.15039413 23.7297554 108.18579803 24.59647369 108.22227478 25.48945618 C108.33371249 28.27642376 108.42639103 31.06361374 108.51733398 33.85131836 C108.64851396 37.43877691 108.78743701 41.02591508 108.92749023 44.61303711 C108.96396667 45.57199387 109.00044312 46.53095062 109.0380249 47.51896667 C109.37678642 56.05302936 109.86613823 64.57642581 110.38061523 73.10131836 C111.45031693 90.84291726 112.4017097 108.58953286 113.31469727 126.33984375 C113.53791481 130.67603589 113.76544364 135.01199144 113.99385262 139.34791279 C114.17284839 142.75986767 114.34881971 146.17197385 114.523983 149.58412743 C114.60660064 151.18389777 114.6902923 152.78361309 114.77518082 154.38326454 C115.16533586 161.75354199 115.51450819 169.12420579 115.64575195 176.50439453 C115.66459442 177.51354416 115.68343689 178.52269379 115.70285034 179.56242371 C115.29397174 183.85107066 113.70906814 185.42730327 110.45483398 188.16381836 C107.4978336 189.93079947 105.34418388 190.41554409 101.91409302 190.42451477 C100.55575851 190.43514198 100.55575851 190.43514198 99.16998291 190.44598389 C97.69087433 190.44226776 97.69087433 190.44226776 96.18188477 190.43847656 C95.1375528 190.44358749 94.09322083 190.44869843 93.01724243 190.45396423 C89.56148564 190.46787574 86.10592796 190.46690215 82.65014648 190.46459961 C80.24884975 190.46848589 77.8475537 190.47282042 75.44625854 190.47758484 C70.41084567 190.48505057 65.3755029 190.48475334 60.34008789 190.47949219 C53.88818964 190.47369944 47.43657862 190.49062241 40.98472786 190.51383686 C36.02446821 190.5285716 31.06427775 190.5294462 26.10400009 190.52632713 C23.72536526 190.52684055 21.34672657 190.53208207 18.96811295 190.54213905 C15.64074316 190.55447972 12.31393314 190.54772535 8.98657227 190.53613281 C7.51353638 190.54759842 7.51353638 190.54759842 6.01074219 190.55929565 C-0.16561668 190.51175054 -4.72358418 189.81977275 -9.40844727 185.40991211 C-10.12581055 184.5146582 -10.12581055 184.5146582 -10.85766602 183.60131836 C-11.34879883 183.0019043 -11.83993164 182.40249023 -12.34594727 181.78491211 C-14.750965 178.5338295 -14.7185782 176.16797974 -14.82641602 172.15991211 C-14.84450821 171.52066299 -14.8626004 170.88141388 -14.88124084 170.22279358 C-14.94149778 168.01574373 -14.99375528 165.80859126 -15.04516602 163.60131836 C-15.07451736 162.41747559 -15.07451736 162.41747559 -15.10446167 161.2097168 C-15.26955374 154.52811251 -15.41044215 147.846097 -15.54516602 141.16381836 C-15.56814758 140.02986633 -15.59112915 138.89591431 -15.61480713 137.7276001 C-15.97966 119.47779042 -16.25878332 101.22775395 -16.46638489 82.97554302 C-16.51027265 79.11874695 -16.55618273 75.26199454 -16.60626221 71.40527344 C-16.72058915 62.56544996 -16.81782375 53.72591836 -16.87179661 44.88549805 C-16.89554418 41.02887779 -16.92725615 37.17275173 -16.97976685 33.31640625 C-17.02842982 29.70318005 -17.05299787 26.09058439 -17.05905724 22.47704315 C-17.06834755 20.51475712 -17.10240458 18.5526374 -17.13716125 16.59063721 C-17.1165012 7.94486913 -17.1165012 7.94486913 -14.19995117 3.95776367 C-9.093907 0.50740386 -6.07453737 -0.10808433 0 0 Z " transform="translate(94.545166015625,38.836181640625)" style="fill: #DAD2D3;"/><path d="M0 0 C0.84675828 0.00801415 1.69351656 0.01602831 2.56593418 0.02428532 C11.29305321 0.12766608 20.01216028 0.43220346 28.73217773 0.78491211 C30.40262408 0.85002361 32.07308027 0.91488297 33.74354553 0.97950745 C37.20477824 1.11420886 40.66589869 1.25142015 44.12695312 1.390625 C48.52948037 1.56756065 52.93220752 1.7387858 57.33502865 1.90823269 C60.76947514 2.04091881 64.2038134 2.17625273 67.63812447 2.3123951 C69.26096351 2.37649028 70.88383061 2.43987985 72.50672722 2.50250053 C79.79046535 2.78506547 87.07402241 3.08793844 94.34765625 3.5703125 C95.26934097 3.63021866 96.1910257 3.69012482 97.14064026 3.75184631 C100.81624828 4.40617691 102.35831506 6.18811408 104.45483398 9.16381836 C105.23685181 10.2172644 105.23685181 10.2172644 106.03466797 11.29199219 C107.96002711 15.18540797 107.99818911 18.57065586 108.11499023 22.86303711 C108.15039413 23.7297554 108.18579803 24.59647369 108.22227478 25.48945618 C108.33371249 28.27642376 108.42639103 31.06361374 108.51733398 33.85131836 C108.64851396 37.43877691 108.78743701 41.02591508 108.92749023 44.61303711 C108.96396667 45.57199387 109.00044312 46.53095062 109.0380249 47.51896667 C109.37678642 56.05302936 109.86613823 64.57642581 110.38061523 73.10131836 C111.45031693 90.84291726 112.4017097 108.58953286 113.31469727 126.33984375 C113.53791481 130.67603589 113.76544364 135.01199144 113.99385262 139.34791279 C114.17284839 142.75986767 114.34881971 146.17197385 114.523983 149.58412743 C114.60660064 151.18389777 114.6902923 152.78361309 114.77518082 154.38326454 C115.16533586 161.75354199 115.51450819 169.12420579 115.64575195 176.50439453 C115.66459442 177.51354416 115.68343689 178.52269379 115.70285034 179.56242371 C115.29397174 183.85107066 113.70906814 185.42730327 110.45483398 188.16381836 C107.4978336 189.93079947 105.34418388 190.41554409 101.91409302 190.42451477 C100.55575851 190.43514198 100.55575851 190.43514198 99.16998291 190.44598389 C97.69087433 190.44226776 97.69087433 190.44226776 96.18188477 190.43847656 C95.1375528 190.44358749 94.09322083 190.44869843 93.01724243 190.45396423 C89.56148564 190.46787574 86.10592796 190.46690215 82.65014648 190.46459961 C80.24884975 190.46848589 77.8475537 190.47282042 75.44625854 190.47758484 C70.41084567 190.48505057 65.3755029 190.48475334 60.34008789 190.47949219 C53.88818964 190.47369944 47.43657862 190.49062241 40.98472786 190.51383686 C36.02446821 190.5285716 31.06427775 190.5294462 26.10400009 190.52632713 C23.72536526 190.52684055 21.34672657 190.53208207 18.96811295 190.54213905 C15.64074316 190.55447972 12.31393314 190.54772535 8.98657227 190.53613281 C7.51353638 190.54759842 7.51353638 190.54759842 6.01074219 190.55929565 C-0.16561668 190.51175054 -4.72358418 189.81977275 -9.40844727 185.40991211 C-10.12581055 184.5146582 -10.12581055 184.5146582 -10.85766602 183.60131836 C-11.34879883 183.0019043 -11.83993164 182.40249023 -12.34594727 181.78491211 C-14.750965 178.5338295 -14.7185782 176.16797974 -14.82641602 172.15991211 C-14.84450821 171.52066299 -14.8626004 170.88141388 -14.88124084 170.22279358 C-14.94149778 168.01574373 -14.99375528 165.80859126 -15.04516602 163.60131836 C-15.07451736 162.41747559 -15.07451736 162.41747559 -15.10446167 161.2097168 C-15.26955374 154.52811251 -15.41044215 147.846097 -15.54516602 141.16381836 C-15.56814758 140.02986633 -15.59112915 138.89591431 -15.61480713 137.7276001 C-15.97966 119.47779042 -16.25878332 101.22775395 -16.46638489 82.97554302 C-16.51027265 79.11874695 -16.55618273 75.26199454 -16.60626221 71.40527344 C-16.72058915 62.56544996 -16.81782375 53.72591836 -16.87179661 44.88549805 C-16.89554418 41.02887779 -16.92725615 37.17275173 -16.97976685 33.31640625 C-17.02842982 29.70318005 -17.05299787 26.09058439 -17.05905724 22.47704315 C-17.06834755 20.51475712 -17.10240458 18.5526374 -17.13716125 16.59063721 C-17.1165012 7.94486913 -17.1165012 7.94486913 -14.19995117 3.95776367 C-9.093907 0.50740386 -6.07453737 -0.10808433 0 0 Z M-10.54516602 8.16381836 C-13.306782 12.00625045 -12.78032099 16.36656322 -12.70019531 20.88916016 C-12.69189792 21.80182742 -12.68360052 22.71449469 -12.67505169 23.65481853 C-12.64260452 26.82470714 -12.59407356 29.99414297 -12.54516602 33.16381836 C-12.51476624 35.57751955 -12.48480674 37.99122632 -12.45523071 40.40493774 C-12.24291108 56.68267573 -11.94073787 72.95914859 -11.63077259 89.23528004 C-11.47462441 97.45648837 -11.32788744 105.6776489 -11.20410156 113.89941406 C-11.09518359 121.13353234 -10.96927623 128.36711653 -10.82270736 135.60057372 C-10.7460358 139.41112065 -10.67753233 143.22139593 -10.62940407 147.0324192 C-10.58397923 150.60455354 -10.51559545 154.17552749 -10.42990875 157.74691582 C-10.38959335 159.67005578 -10.3731884 161.59365114 -10.35765076 163.51715088 C-10.16073701 170.62114305 -9.45823444 175.80796449 -4.54516602 181.16381836 C0.4847715 185.78840402 5.01568223 185.73772931 11.51171875 185.68139648 C12.50918121 185.68840576 13.50664368 185.69541504 14.53433228 185.70263672 C17.8219205 185.7202006 21.1086437 185.70860007 24.39624023 185.69506836 C26.6849738 185.69776351 28.97370626 185.70164612 31.26243591 185.70666504 C36.05478843 185.71255775 40.84684238 185.70400331 45.63916016 185.68530273 C51.78183249 185.66250082 57.92380621 185.67564613 64.06645298 185.69959259 C68.79079962 185.71404545 73.51498057 185.70944706 78.2393322 185.69908142 C80.50435405 185.69641341 82.76939095 185.69968648 85.03439522 185.70899963 C88.19911702 185.71915783 91.36270631 185.70367387 94.52734375 185.68139648 C95.46306717 185.68949341 96.39879059 185.69759033 97.36286926 185.70593262 C101.58933457 185.65081208 103.85589003 185.5373981 107.51280212 183.25646973 C110.81932085 179.69350504 110.54212042 177.54210871 110.40405273 172.76147461 C110.38595551 172.10606186 110.36785828 171.45064911 110.34921265 170.77537537 C110.28643951 168.592122 110.21486163 166.40926819 110.14233398 164.22631836 C110.11871796 163.46609375 110.09510193 162.70586914 110.07077026 161.92260742 C109.70248418 150.12762772 109.11440998 138.35524636 108.38879395 126.5774231 C107.37793863 110.10602358 106.75698743 93.62129401 106.15234375 77.13061523 C106.11311798 76.0886499 106.07389221 75.04668457 106.03347778 73.97314453 C105.96040392 72.02874102 105.88970327 70.08424605 105.82199097 68.13964844 C105.61285822 62.60675461 105.20760837 57.12042723 104.67897034 51.60906982 C104.4207566 48.79204569 104.26974473 45.98302937 104.17358398 43.15600586 C104.11750977 41.64586914 104.11750977 41.64586914 104.06030273 40.10522461 C103.98972184 38.05315049 103.91941137 36.00106705 103.84936523 33.94897461 C103.90705575 21.18614502 103.90705575 21.18614502 98.45483398 10.16381836 C95.01414034 7.91428426 91.85082594 7.80621924 87.79858398 7.60131836 C87.12394608 7.56513397 86.44930817 7.52894958 85.75422668 7.4916687 C83.48812927 7.37310764 81.22162728 7.26816781 78.95483398 7.16381836 C77.34568301 7.08365477 75.7365526 7.00307743 74.12744141 6.92211914 C59.34535706 6.19497834 44.55589627 5.61591273 29.76733398 5.03881836 C28.63150879 4.9943457 27.49568359 4.94987305 26.32543945 4.90405273 C23.05225658 4.77712277 19.77897086 4.65339235 16.50561523 4.53100586 C15.53711136 4.49361298 14.56860748 4.45622009 13.570755 4.41769409 C10.86563409 4.31893287 8.16078186 4.23619679 5.45483398 4.16381836 C4.5356015 4.13612366 3.61636902 4.10842896 2.66928101 4.07989502 C1.78277863 4.06392273 0.89627625 4.04795044 -0.01708984 4.03149414 C-0.80489334 4.0145047 -1.59269684 3.99751526 -2.40437317 3.98001099 C-5.93078622 4.282787 -7.9730415 5.84890629 -10.54516602 8.16381836 Z " transform="translate(94.545166015625,38.836181640625)" style="fill: #C31230;"/><path d="M0 0 C12.21 0 24.42 0 37 0 C37.43247684 6.79091614 37.86137075 13.58188283 38.28173828 20.37353516 C38.4252451 22.67574409 38.57069644 24.97783279 38.71826172 27.27978516 C38.93209475 30.62110811 39.13852863 33.96282578 39.34375 37.3046875 C39.40937134 38.30547333 39.47499268 39.30625916 39.54260254 40.33737183 C40.09944229 49.6054298 40 58.65377315 40 68 C27.79 68 15.58 68 3 68 C1.87699208 54.52390495 1.87699208 54.52390495 1.71875 48.21484375 C1.69113586 47.21403526 1.69113586 47.21403526 1.66296387 46.19300842 C1.58623233 43.40963692 1.51717265 40.6260913 1.44775391 37.8425293 C1.20922222 28.06550207 1.20922222 28.06550207 0.46875 18.31640625 C-0.06766724 12.23254076 0 6.10746778 0 0 Z " transform="translate(128,232)" style="fill: #434345;"/><path d="M0 0 C1.16237686 0.00630432 2.32475372 0.01260864 3.52235413 0.019104 C5.43146828 0.06233795 5.43146828 0.06233795 7.37915039 0.10644531 C8.74517744 0.12399769 10.11122218 0.14021495 11.47727966 0.1552124 C16.06132729 0.21512764 20.6437541 0.32374474 25.22680664 0.43457031 C26.88950302 0.47205704 28.55220247 0.50940833 30.21490479 0.54663086 C40.90254207 0.79283779 51.58613932 1.12288915 62.27001953 1.49658203 C66.93484496 1.65874582 71.60009167 1.79786082 76.26577854 1.93259048 C79.90623284 2.04186071 83.54596853 2.16787546 87.18571281 2.29851532 C88.90822957 2.3574277 90.6309738 2.41006258 92.35388374 2.45606232 C94.74034611 2.52126462 97.12480959 2.6102644 99.51025391 2.70507812 C100.20674042 2.71874924 100.90322693 2.73242035 101.62081909 2.74650574 C106.54374676 2.97811624 109.39822342 4.39361233 113.22680664 7.43457031 C117.89211229 12.60423333 118.44918605 16.90960582 118.91040039 23.65722656 C118.99988953 24.90827682 118.99988953 24.90827682 119.09118652 26.18460083 C119.28719202 28.9551023 119.47629926 31.72601518 119.66430664 34.49707031 C119.73094513 35.46391754 119.79758362 36.43076477 119.86624146 37.4269104 C120.84134982 51.63020816 121.64335368 65.83375461 122.2718811 80.05630493 C122.83993797 92.90782626 123.51022895 105.75144208 124.23852539 118.59472656 C124.28382574 119.39586065 124.32912609 120.19699474 124.37579918 121.02240562 C124.83504495 129.14355796 125.29766543 137.26449647 125.77007389 145.38489437 C125.94804867 148.45777149 126.12280855 151.53082637 126.2968998 154.6039257 C126.37875941 156.03560678 126.46203212 157.46720793 126.54689598 158.89871407 C126.96556258 165.96684874 127.30561325 173.03577734 127.44897461 180.11523438 C127.48593948 181.76993744 127.48593948 181.76993744 127.52365112 183.45806885 C127.05177311 188.18965623 124.79455113 191.39053144 121.22680664 194.43457031 C118.17626314 196.24964921 115.92871909 196.68919698 112.39581299 196.70872498 C111.42583374 196.7187001 110.45585449 196.72867523 109.45648193 196.73895264 C108.39874573 196.73961731 107.34100952 196.74028198 106.2512207 196.7409668 C105.13207275 196.74929031 104.0129248 196.75761383 102.85986328 196.76618958 C99.15401749 196.79031692 95.44834768 196.79906565 91.74243164 196.80566406 C89.1665644 196.81462909 86.5906977 196.82375091 84.01483154 196.83302307 C78.61118961 196.84952363 73.20761853 196.85724801 67.80395508 196.86010742 C61.57131149 196.86373872 55.33916155 196.89360586 49.10666871 196.93551201 C43.09879641 196.97448245 37.09119625 196.98570188 31.08318329 196.98683357 C28.53313269 196.99103667 25.9830817 197.00347442 23.4331131 197.02435112 C19.86163118 197.05126028 16.29150285 197.04643961 12.7199707 197.03393555 C11.14551178 197.05618698 11.14551178 197.05618698 9.53924561 197.07888794 C2.87496516 197.01257754 -1.72654664 195.94246863 -6.77319336 191.43457031 C-10.29535592 187.27633481 -11.27649685 184.38604216 -11.34521484 178.98291016 C-11.35884882 178.34449818 -11.3724828 177.7060862 -11.38652992 177.0483284 C-11.42833333 174.87227659 -11.44221122 172.69690073 -11.45678711 170.52050781 C-11.48213692 168.91300593 -11.50934531 167.30553252 -11.53819275 165.6980896 C-11.60052572 162.03362095 -11.65057281 158.36921649 -11.69329834 154.70446777 C-11.77634722 147.8096045 -11.90144887 140.91567382 -12.02758789 134.02148438 C-12.28420228 119.81139317 -12.51343986 105.60098111 -12.73598802 91.39032435 C-12.8249214 85.7199013 -12.91627004 80.0495191 -13.00822359 74.37914431 C-13.10922716 68.14863861 -13.20884557 61.91811155 -13.30776787 55.68757248 C-13.3493227 53.07634365 -13.39118143 50.46511963 -13.43336678 47.85390091 C-13.54378657 40.99075947 -13.64267167 34.1276504 -13.72914505 27.26416779 C-13.76898752 24.70474686 -13.83118492 22.1472386 -13.90328979 19.58856201 C-13.93096662 18.23954592 -13.95849939 16.89052686 -13.98583984 15.54150391 C-14.01701401 14.45356537 -14.04818817 13.36562683 -14.08030701 12.24472046 C-13.58307273 7.69492926 -11.6572916 5.30296153 -8.44651794 2.14923096 C-5.3167052 0.14178047 -3.68788823 -0.04783181 0 0 Z M-6.77319336 7.43457031 C-9.05404068 10.8558413 -9.02171096 12.05889766 -9.01611328 16.07763672 C-9.01914459 17.25149933 -9.0221759 18.42536194 -9.02529907 19.63479614 C-9.01815887 20.92223724 -9.01101868 22.20967834 -9.00366211 23.53613281 C-9.00284594 24.90078711 -9.0028136 26.26544207 -9.00350952 27.63009644 C-9.0024529 31.33310696 -8.98807119 35.03595673 -8.97063065 38.73892212 C-8.96068421 41.06170792 -8.95440489 43.38447393 -8.94943237 45.70727539 C-8.88625985 75.0590002 -8.54382417 104.40602243 -7.97271729 133.75212097 C-7.84372581 140.39823329 -7.73421108 147.04382915 -7.65864563 153.69076538 C-7.6162712 157.21431095 -7.55904723 160.73748843 -7.49728394 164.26074219 C-7.47334304 165.80573834 -7.45577367 167.35084966 -7.44534302 168.89599609 C-7.4305489 170.94421713 -7.389782 172.99220287 -7.34741211 175.04003906 C-7.33282959 176.14500732 -7.31824707 177.24997559 -7.30322266 178.38842773 C-6.17528092 184.87084551 -1.79572281 188.6943888 3.22680664 192.43457031 C6.0300132 193.3689725 7.74740483 193.56597205 10.64729309 193.58174133 C11.55147476 193.58889664 12.45565643 193.59605194 13.38723755 193.60342407 C14.37690521 193.60611298 15.36657288 193.60880188 16.38623047 193.61157227 C17.95250938 193.62142906 17.95250938 193.62142906 19.5504303 193.63148499 C23.01156686 193.65122229 26.47266006 193.66288087 29.93383789 193.67285156 C31.1151145 193.67692709 32.29639111 193.68100262 33.51346397 193.68520164 C39.7643453 193.70606305 46.01520466 193.72036516 52.26611328 193.72973633 C58.72593086 193.74080792 65.18540465 193.7752167 71.64510059 193.81490803 C76.60964097 193.84103603 81.57409892 193.84942474 86.53870201 193.85301781 C88.9201458 193.85789269 91.30158568 193.86953217 93.68296242 193.8880558 C97.0153198 193.91236783 100.34678055 193.91149645 103.67919922 193.90454102 C104.66279419 193.91735107 105.64638916 193.93016113 106.65979004 193.94335938 C112.35427374 193.90003298 115.77488295 193.34477115 120.22680664 189.43457031 C122.39551049 187.20287883 123.14409299 186.05512986 123.55575562 182.96662903 C123.53018585 182.00319077 123.50461609 181.0397525 123.47827148 180.04711914 C123.4507782 178.88733551 123.42328491 177.72755188 123.3949585 176.53262329 C123.34138486 175.16650624 123.28515108 173.80049192 123.22680664 172.43457031 C123.19649605 171.67207851 123.16618546 170.90958672 123.13495636 170.12398911 C122.87006744 163.62487472 122.5389267 157.12957179 122.20336914 150.63378906 C122.09582739 148.50943657 121.98852229 146.38507208 121.88143921 144.26069641 C121.65648533 139.81179291 121.42932024 135.36300981 121.20043945 130.91430664 C120.91233952 125.31300041 120.62871811 119.71147922 120.34661674 114.10986805 C118.76912434 82.75659459 118.76912434 82.75659459 116.83731079 51.42362976 C116.24920478 42.55946018 115.93111713 33.70477605 115.81033325 24.82200623 C115.70764706 18.86638338 114.75571639 15.27902769 111.22680664 10.43457031 C108.0805727 7.53008965 105.82179602 7.00765124 101.58618164 6.77441406 C100.39782715 6.70399902 99.20947266 6.63358398 97.98510742 6.56103516 C96.6490389 6.49737725 95.31293707 6.43441535 93.97680664 6.37207031 C92.56124918 6.29662424 91.14572274 6.22059416 89.73022461 6.14404297 C74.94533306 5.37432544 60.14631905 4.85387563 45.35180664 4.30957031 C44.15164917 4.26500702 42.9514917 4.22044373 41.71496582 4.17453003 C34.90975714 3.92549522 28.10457268 3.70237382 21.29724121 3.51989746 C19.2982694 3.46434618 17.29945763 3.40257408 15.30090332 3.33361816 C12.66947095 3.24529182 10.03883114 3.18343035 7.40649414 3.12988281 C6.27874069 3.0845491 6.27874069 3.0845491 5.12820435 3.03829956 C-0.00253828 2.9773084 -2.84544352 4.17599811 -6.77319336 7.43457031 Z " transform="translate(86.773193359375,35.5654296875)" style="fill: #D8CFD1;"/><path d="M0 0 C3.63 0 7.26 0 11 0 C11 1.65 11 3.3 11 5 C9.35 5 7.7 5 6 5 C6 6.65 6 8.3 6 10 C7.65 10 9.3 10 11 10 C11 11.32 11 12.64 11 14 C9.68 14 8.36 14 7 14 C7 15.98 7 17.96 7 20 C8.2065625 19.9690625 8.2065625 19.9690625 9.4375 19.9375 C12 20 12 20 13 21 C13.06058594 19.90300781 13.12117188 18.80601563 13.18359375 17.67578125 C13.26804498 16.22134346 13.35269066 14.76691695 13.4375 13.3125 C13.47681641 12.59126953 13.51613281 11.87003906 13.55664062 11.12695312 C13.78185678 7.33292718 14.12839305 3.71348508 15 0 C18.3 0 21.6 0 25 0 C25.20496094 0.78246094 25.40992188 1.56492188 25.62109375 2.37109375 C25.89050781 3.38300781 26.15992188 4.39492188 26.4375 5.4375 C26.70433594 6.44683594 26.97117188 7.45617188 27.24609375 8.49609375 C27.75978077 10.91752001 27.75978077 10.91752001 29 12 C29 8.04 29 4.08 29 0 C31.64 0 34.28 0 37 0 C37.495 1.98 37.495 1.98 38 4 C38.33 2.68 38.66 1.36 39 0 C49.71460306 -0.14036598 60.3120232 0.26740918 71 1 C71.99 3.475 71.99 3.475 73 6 C73.33 4.68 73.66 3.36 74 2 C75.98 2 77.96 2 80 2 C79.34 10.25 78.68 18.5 78 27 C72 27 72 27 71 26 C70.84013018 24.31544579 70.72259405 22.62680656 70.625 20.9375 C70.21298252 15.7636411 69.05932486 11.74540076 67 7 C65.35 7 63.7 7 62 7 C62.10828125 7.92619141 62.10828125 7.92619141 62.21875 8.87109375 C62.8488859 14.62108387 63.09328281 20.21646559 63 26 C60.69 26 58.38 26 56 26 C55.505 21.545 55.505 21.545 55 17 C51.3993872 20.01937461 51.3993872 20.01937461 51 26 C41.76 26 32.52 26 23 26 C23 24.35 23 22.7 23 21 C22.01 21 21.02 21 20 21 C20 22.32 20 23.64 20 25 C13.73 25 7.46 25 1 25 C-0.03159195 16.61831538 -0.10118747 8.4322892 0 0 Z " transform="translate(110,55)" style="fill: #C8495E;"/><path d="M0 0 C2.31 0 4.62 0 7 0 C7.33 2.31 7.66 4.62 8 7 C8.33 4.69 8.66 2.38 9 0 C11.64 0 14.28 0 17 0 C17.66 4.29 18.32 8.58 19 13 C19.33 8.71 19.66 4.42 20 0 C30.23 0 40.46 0 51 0 C51 1.98 51 3.96 51 6 C50.01 6 49.02 6 48 6 C48.33 12.6 48.66 19.2 49 26 C45 26 41 26 37 26 C35.12392107 26.15404754 33.24895793 26.32199872 31.375 26.5 C25.899175 26.9776211 20.49322321 27.10937834 15 27 C15 26.34 15 25.68 15 25 C11.37 25 7.74 25 4 25 C3.33011979 21.39640334 2.66396233 17.79218739 2 14.1875 C1.80921875 13.16333984 1.6184375 12.13917969 1.421875 11.08398438 C1.24140625 10.10107422 1.0609375 9.11816406 0.875 8.10546875 C0.70742187 7.19949951 0.53984375 6.29353027 0.3671875 5.36010742 C0 3 0 3 0 0 Z " transform="translate(109,101)" style="fill: #D8B6B9;"/><path d="M0 0 C1.98 0 3.96 0 6 0 C6.66 3.63 7.32 7.26 8 11 C8.33 7.37 8.66 3.74 9 0 C11.64 0 14.28 0 17 0 C17.66 2.31 18.32 4.62 19 7 C19.33 4.69 19.66 2.38 20 0 C21.98 0 23.96 0 26 0 C26 8.25 26 16.5 26 25 C23.03 25 20.06 25 17 25 C15.38935371 21.34920174 14.55105909 17.9492568 14 14 C13.67 17.63 13.34 21.26 13 25 C10.03 25 7.06 25 4 25 C3.32736907 21.77197209 2.6617023 18.54276967 2 15.3125 C1.80921875 14.40048828 1.6184375 13.48847656 1.421875 12.54882812 C1.24140625 11.66259766 1.0609375 10.77636719 0.875 9.86328125 C0.70742187 9.05157471 0.53984375 8.23986816 0.3671875 7.40356445 C-0.0153713 4.89938135 -0.06298509 2.52924498 0 0 Z " transform="translate(122,189)" style="fill: #C10C2C;"/><path d="M0 0 C2.31 0 4.62 0 7 0 C7.33 2.31 7.66 4.62 8 7 C8.33 4.69 8.66 2.38 9 0 C11.64 0 14.28 0 17 0 C17.66 4.29 18.32 8.58 19 13 C19.33 8.71 19.66 4.42 20 0 C21.98 0 23.96 0 26 0 C26 8.25 26 16.5 26 25 C23.03 25 20.06 25 17 25 C16.01 22.36 15.02 19.72 14 17 C13.67 19.64 13.34 22.28 13 25 C10.03 25 7.06 25 4 25 C3.32902306 21.39662187 2.66396043 17.79217704 2 14.1875 C1.80921875 13.16333984 1.6184375 12.13917969 1.421875 11.08398438 C1.24140625 10.10107422 1.0609375 9.11816406 0.875 8.10546875 C0.70742187 7.19949951 0.53984375 6.29353027 0.3671875 5.36010742 C0 3 0 3 0 0 Z " transform="translate(109,101)" style="fill: #C10F2E;"/><path d="M0 0 C6.6 0 13.2 0 20 0 C20.66 1.65 21.32 3.3 22 5 C22.33 3.68 22.66 2.36 23 1 C24.98 1 26.96 1 29 1 C28.34 9.25 27.68 17.5 27 26 C21 26 21 26 20 25 C19.84013018 23.31544579 19.72259405 21.62680656 19.625 19.9375 C19.21298252 14.7636411 18.05932486 10.74540076 16 6 C14.35 6 12.7 6 11 6 C11.0721875 6.61746094 11.144375 7.23492187 11.21875 7.87109375 C11.8488859 13.62108387 12.09328281 19.21646559 12 25 C9.69 25 7.38 25 5 25 C4.11978631 18.28837062 3.88618045 11.76594019 4 5 C2.68 5 1.36 5 0 5 C0 3.35 0 1.7 0 0 Z " transform="translate(161,56)" style="fill: #C21B38;"/><path d="M0 0 C9.7003861 -0.61158301 9.7003861 -0.61158301 14.1875 1.5 C16.840125 5.15879311 16.36006456 7.53519943 16 12 C15.76429774 14 15.76429774 14 17 15 C17.07226502 16.85287502 17.0838122 18.70833878 17.0625 20.5625 C17.05347656 21.57441406 17.04445313 22.58632812 17.03515625 23.62890625 C17.02355469 24.41136719 17.01195313 25.19382812 17 26 C15.02 26 13.04 26 11 26 C10.95101562 25.21753906 10.90203125 24.43507813 10.8515625 23.62890625 C10.73941406 22.11103516 10.73941406 22.11103516 10.625 20.5625 C10.55539063 19.55316406 10.48578125 18.54382813 10.4140625 17.50390625 C10.27742188 16.67761719 10.14078125 15.85132812 10 15 C9.34 14.67 8.68 14.34 8 14 C8 17.63 8 21.26 8 25 C6.02 25 4.04 25 2 25 C1.66355312 21.58363244 1.33138634 18.16686185 1 14.75 C0.90460938 13.78191406 0.80921875 12.81382813 0.7109375 11.81640625 C0.62070313 10.88183594 0.53046875 9.94726562 0.4375 8.984375 C0.35371094 8.12553711 0.26992187 7.26669922 0.18359375 6.38183594 C0.02003879 4.25997133 0 2.12815874 0 0 Z " transform="translate(91,54)" style="fill: #C21735;"/><path d="M0 0 C1.98 0 3.96 0 6 0 C6.33 2.97 6.66 5.94 7 9 C7.66 9 8.32 9 9 9 C9 6.03 9 3.06 9 0 C10.98 0 12.96 0 15 0 C15.33821197 2.85366354 15.6706978 5.70780596 16 8.5625 C16.09539062 9.36236328 16.19078125 10.16222656 16.2890625 10.98632812 C16.82714176 15.69452167 17.10176703 20.26147265 17 25 C14.69 25 12.38 25 10 25 C10 21.37 10 17.74 10 14 C9.34 14 8.68 14 8 14 C8 17.63 8 21.26 8 25 C5.69 25 3.38 25 1 25 C0.67 16.75 0.34 8.5 0 0 Z " transform="translate(162,102)" style="fill: #C2102E;"/><path d="M0 0 C3.3 0 6.6 0 10 0 C12.38135792 8.30706251 14.59128562 16.31481952 15 25 C13.02 25 11.04 25 9 25 C8.67 23.68 8.34 22.36 8 21 C7.01 21 6.02 21 5 21 C5 22.32 5 23.64 5 25 C3.02 25 1.04 25 -1 25 C-1.11055829 16.58528588 -0.90473908 8.36883649 0 0 Z " transform="translate(141,145)" style="fill: #C21533;"/><path d="M0 0 C2.72793225 0.07935803 4.11428522 0.30741048 6.625 1.5 C8.125 3.3125 8.125 3.3125 8.375 6 C8.2925 6.763125 8.21 7.52625 8.125 8.3125 C6.145 8.3125 4.165 8.3125 2.125 8.3125 C2.125 7.3225 2.125 6.3325 2.125 5.3125 C1.465 5.3125 0.805 5.3125 0.125 5.3125 C0.32026998 7.23544796 0.32026998 7.23544796 1.125 9.3125 C2.98556441 10.72528428 2.98556441 10.72528428 5.1875 11.9375 C7.93500459 13.8377349 8.98117656 14.60084033 9.65234375 17.921875 C9.62755423 20.4291575 9.4780634 22.83124892 9.125 25.3125 C5.56993789 27.22794295 3.20852528 27.82294066 -0.875 27.3125 C-3.25 25.625 -3.25 25.625 -4.875 23.3125 C-5.125 20.5625 -5.125 20.5625 -4.875 18.3125 C-3.225 18.3125 -1.575 18.3125 0.125 18.3125 C0.125 19.6325 0.125 20.9525 0.125 22.3125 C1.115 22.3125 2.105 22.3125 3.125 22.3125 C2.0989178 18.43618947 0.64501262 16.83707479 -2.5 14.5625 C-4.78410992 12.739011 -5.74574004 11.87932888 -6.40234375 9 C-6.43612745 6.65766362 -6.39158611 4.59827925 -5.875 2.3125 C-3.875 0.3125 -3.875 0.3125 0 0 Z " transform="translate(165.875,187.6875)" style="fill: #C11231;"/><path d="M0 0 C4.62 0 9.24 0 14 0 C14 1.65 14 3.3 14 5 C13.01 5 12.02 5 11 5 C11 11.6 11 18.2 11 25 C9.02 25 7.04 25 5 25 C4.67 18.4 4.34 11.8 4 5 C2.68 5 1.36 5 0 5 C0 3.35 0 1.7 0 0 Z " transform="translate(176,189)" style="fill: #C10E2E;"/><path d="M0 0 C4.62 0 9.24 0 14 0 C14 1.65 14 3.3 14 5 C13.01 5 12.02 5 11 5 C11.33 11.6 11.66 18.2 12 25 C9.69 25 7.38 25 5 25 C4.67 18.07 4.34 11.14 4 4 C2.68 4 1.36 4 0 4 C0 2.68 0 1.36 0 0 Z " transform="translate(146,102)" style="fill: #C2102E;"/><path d="M0 0 C4.62 0 9.24 0 14 0 C14 1.32 14 2.64 14 4 C12.68 4 11.36 4 10 4 C10.165 5.051875 10.33 6.10375 10.5 7.1875 C11.25711395 13.10578512 11.08169679 19.04521179 11 25 C9.02 25 7.04 25 5 25 C4.21311555 22.22276075 3.88050076 19.77389923 3.90234375 16.890625 C3.90717773 15.75947266 3.90717773 15.75947266 3.91210938 14.60546875 C3.92048828 13.82816406 3.92886719 13.05085937 3.9375 12.25 C3.94201172 11.45722656 3.94652344 10.66445312 3.95117188 9.84765625 C3.96291435 7.89840492 3.98084854 5.94919262 4 4 C2.68 4 1.36 4 0 4 C0 2.68 0 1.36 0 0 Z " transform="translate(107,189)" style="fill: #C10A2A;"/><path d="M0 0 C2.31 0 4.62 0 7 0 C7.33 6.6 7.66 13.2 8 20 C9.32 20 10.64 20 12 20 C12 21.32 12 22.64 12 24 C8.37 24 4.74 24 1 24 C0.67 16.08 0.34 8.16 0 0 Z " transform="translate(140,56)" style="fill: #C10D2D;"/><path d="M0 0 C2.31 0 4.62 0 7 0 C8.10102642 8.35600408 8.10094304 16.58807963 8 25 C6.02 25 4.04 25 2 25 C1.0268319 22.0804957 0.8070454 19.94555049 0.68359375 16.89453125 C0.64169922 15.91162109 0.59980469 14.92871094 0.55664062 13.91601562 C0.51732422 12.89185547 0.47800781 11.86769531 0.4375 10.8125 C0.39431641 9.77673828 0.35113281 8.74097656 0.30664062 7.67382812 C0.20055634 5.1160181 0.09849854 2.55811155 0 0 Z " transform="translate(137,101)" style="fill: #C21331;"/><path d="M0 0 C2.31 0 4.62 0 7 0 C7.75475351 8.35619957 8.13605482 16.60995285 8 25 C5.69 25 3.38 25 1 25 C0.67 16.75 0.34 8.5 0 0 Z " transform="translate(150,189)" style="fill: #C2102E;"/><path d="M0 0 C1.98 0 3.96 0 6 0 C6.66 8.25 7.32 16.5 8 25 C5.69 25 3.38 25 1 25 C0.04541351 16.64736824 -0.11039334 8.40215965 0 0 Z " transform="translate(153,56)" style="fill: #C1102E;"/><path d="M0 0 C0.66 0.66 1.32 1.32 2 2 C4.39161729 2.20670655 4.39161729 2.20670655 7.1875 2.0625 C14.50640889 1.92910555 21.70585522 2.44197799 29 3 C29 3.33 29 3.66 29 4 C26.69 4 24.38 4 22 4 C22.24556641 4.82757813 22.24556641 4.82757813 22.49609375 5.671875 C23.05760414 8.26614007 23.09739008 10.59835411 23.0625 13.25 C23.05347656 14.14203125 23.04445312 15.0340625 23.03515625 15.953125 C23.02355469 16.62859375 23.01195312 17.3040625 23 18 C22.67 18 22.34 18 22 18 C21.505 14.535 21.505 14.535 21 11 C20.67 11 20.34 11 20 11 C20 8.69 20 6.38 20 4 C18.02 4 16.04 4 14 4 C14.04125 5.0725 14.0825 6.145 14.125 7.25 C14 11 14 11 12 15 C11.505 9.555 11.505 9.555 11 4 C8.36 4 5.72 4 3 4 C3 8.95 3 13.9 3 19 C1.1155829 15.2311658 0.66570538 13.31987525 0.375 9.25 C0.30023438 8.26515625 0.22546875 7.2803125 0.1484375 6.265625 C0.09945312 5.51796875 0.05046875 4.7703125 0 4 C-1.98 4 -3.96 4 -6 4 C-6 5.65 -6 7.3 -6 9 C-7.32 9 -8.64 9 -10 9 C-10 11.31 -10 13.62 -10 16 C-10.33 16 -10.66 16 -11 16 C-11 13.36 -11 10.72 -11 8 C-9.68 8 -8.36 8 -7 8 C-7 6.68 -7 5.36 -7 4 C-11.62 4 -16.24 4 -21 4 C-21 5.32 -21 6.64 -21 8 C-19.02 8.495 -19.02 8.495 -17 9 C-18.65 9 -20.3 9 -22 9 C-22 7.02 -22 5.04 -22 3 C-14.74 3 -7.48 3 0 3 C0 2.01 0 1.02 0 0 Z " transform="translate(128,185)" style="fill: #D2999E;"/><path d="M0 0 C0.99 0.33 1.98 0.66 3 1 C2.125 6.875 2.125 6.875 1 8 C1.66 8.66 2.32 9.32 3 10 C3.125 12.625 3.125 12.625 3 15 C-1.75 14.125 -1.75 14.125 -4 13 C-3.52511102 11.01980257 -3.04497141 9.04086365 -2.5625 7.0625 C-2.29566406 5.96035156 -2.02882812 4.85820312 -1.75390625 3.72265625 C-1 1 -1 1 0 0 Z " transform="translate(144,240)" style="fill: #51677F;"/><path d="M0 0 C0.33 0.99 0.66 1.98 1 3 C0.34 3 -0.32 3 -1 3 C-1.66 5.97 -2.32 8.94 -3 12 C-3.66 12 -4.32 12 -5 12 C-5 8.7 -5 5.4 -5 2 C-3.35 2 -1.7 2 0 2 C0 1.34 0 0.68 0 0 Z " transform="translate(135,59)" style="fill: #CB6472;"/><path d="M0 0 C1.485 0.99 1.485 0.99 3 2 C3.29296875 4.1640625 3.29296875 4.1640625 3.1875 6.625 C3.16042969 7.44226563 3.13335937 8.25953125 3.10546875 9.1015625 C3.07066406 9.72804687 3.03585938 10.35453125 3 11 C2.34 11 1.68 11 1 11 C-0.28317892 7.15046324 -0.06643637 4.05261865 0 0 Z " transform="translate(139,194)" style="fill: #C85063;"/><path d="M0 0 C1.875 0.25 1.875 0.25 4 1 C5.25 3.0625 5.25 3.0625 6 5 C4.68 5 3.36 5 2 5 C1.34 3.35 0.68 1.7 0 0 Z " transform="translate(144,295)" style="fill: #516E8F;"/></svg>